<svg xmlns="http://www.w3.org/2000/svg" viewBox="0 0 1600 1000" role="img" aria-label="Brake system placeholder">
  <defs>
    <linearGradient id="bg" x1="0" x2="1" y1="0" y2="1">
      <stop offset="0" stop-color="#fbf8f2"/>
      <stop offset=".58" stop-color="#aeb2b2"/>
      <stop offset="1" stop-color="#202326"/>
    </linearGradient>
    <radialGradient id="disc" cx=".48" cy=".44" r=".62">
      <stop offset="0" stop-color="#fbfaf6"/>
      <stop offset=".42" stop-color="#a7adb0"/>
      <stop offset=".72" stop-color="#5b6266"/>
      <stop offset="1" stop-color="#202326"/>
    </radialGradient>
    <filter id="shadow" x="-20%" y="-20%" width="140%" height="140%">
      <feDropShadow dx="0" dy="38" stdDeviation="30" flood-color="#101214" flood-opacity=".34"/>
    </filter>
  </defs>
  <rect width="1600" height="1000" fill="url(#bg)"/>
  <g opacity=".14" stroke="#202326" stroke-width="2">
    <path d="M120 220h1300M160 500h1240M220 760h1160"/>
    <path d="M270 80v820M810 0v900M1300 110v740"/>
  </g>
  <g filter="url(#shadow)" transform="translate(455 125)">
    <circle cx="380" cy="380" r="325" fill="url(#disc)"/>
    <circle cx="380" cy="380" r="170" fill="#202326" opacity=".82"/>
    <circle cx="380" cy="380" r="72" fill="#fbf8f2"/>
    <g fill="#202326" opacity=".42">
      <circle cx="380" cy="156" r="24"/>
      <circle cx="604" cy="380" r="24"/>
      <circle cx="380" cy="604" r="24"/>
      <circle cx="156" cy="380" r="24"/>
    </g>
    <path d="M640 185c102 108 116 296 40 440l148 60c104-190 77-438-70-588z" fill="#ff5a1f"/>
  </g>
  <path d="M0 710h1600v290H0z" fill="#14171a" opacity=".25"/>
</svg>
